# xmcd CD database file
#
# Track frame offsets:
#	150
#	14142
#	28752
#	45285
#	70782
#	85395
#	99382
#	116547
#	136400
#
# Disc length: 2062 seconds
#
# Revision: 1
# Processed by: cddbd v1.5.2PL0 Copyright (c) Steve Scherf et al.
# Submitted via: CDex 1.92
#
DISCID=72080c09
DTITLE=Geoff Muldaur - Motion
DYEAR=1976
DGENRE=Rock
TTITLE0=Let It Out
TTITLE1=Since I've Been With You Babe
TTITLE2=What Do You Want The Girl To Do?
TTITLE3=Motion
TTITLE4=When You Touch Me This Way
TTITLE5=Why Don't We Live Together
TTITLE6=Southern Nights
TTITLE7=I Don't Want To Talk About It
TTITLE8=Hooray For Hollywood
EXTD=YEAR: 1976
EXTT0=
EXTT1=
EXTT2=
EXTT3=
EXTT4=
EXTT5=
EXTT6=
EXTT7=
EXTT8=
PLAYORDER=
